{"title":"We Are Monster 2014 Movies HC HDRip XviD AAC New +Sample ~ â˜»rDXâ˜»","uid":11890210,"size":740520460,"categoryP":"video","categoryS":"movies","magnet":"?xt=urn:btih:2909e06ce0f6388a60294541a798aeb32a7ae08c&amp;dn=We+Are+Monster+2014+Movies+HC+HDRip+XviD+AAC+New+%2BSample+%7E+%E2%98%BBrDX%E2%98%BB&amp;tr=udp%3A%2F%2Ftracker.openbittorrent.com%3A80&amp;tr=udp%3A%2F%2Fopen.demonii.com%3A1337&amp;tr=udp%3A%2F%2Ftracker.coppersurfer.tk%3A6969&amp;tr=udp%3A%2F%2Fexodus.desync.com%3A6969","seeders":3,"leechers":2,"uploader":"basicssom","files":2,"time":1430974053,"description":"----------------------------------------------------------------\nWe Are Monster 2014 English Movies HC HDRip XviD AAC New Source with Sample ~ â˜»rDXâ˜»\n\nSCREEN SHOTS &amp; POSTER:\n &lt;a href=&quot;\nhttp://postimage.co.nr/2015/5/WeAreMonster/11.html&quot; rel=&quot;nofollow&quot; target=&quot;_NEW&quot;&gt;\nhttp://postimage.co.nr/2015/5/WeAreMonster/11.html&lt;/a&gt; &lt;a href=&quot;\nhttp://postimage.co.nr/2015/5/WeAreMonster/1.html&quot; rel=&quot;nofollow&quot; target=&quot;_NEW&quot;&gt;\nhttp://postimage.co.nr/2015/5/WeAreMonster/1.html&lt;/a&gt; &lt;a href=&quot;\nhttp://postimage.co.nr/2015/5/WeAreMonster/2.html&quot; rel=&quot;nofollow&quot; target=&quot;_NEW&quot;&gt;\nhttp://postimage.co.nr/2015/5/WeAreMonster/2.html&lt;/a&gt; &lt;a href=&quot;\nhttp://postimage.co.nr/2015/5/WeAreMonster/3.html&quot; rel=&quot;nofollow&quot; target=&quot;_NEW&quot;&gt;\nhttp://postimage.co.nr/2015/5/WeAreMonster/3.html&lt;/a&gt; &lt;a href=&quot;\nhttp://postimage.co.nr/2015/5/WeAreMonster/4.html&quot; rel=&quot;nofollow&quot; target=&quot;_NEW&quot;&gt;\nhttp://postimage.co.nr/2015/5/WeAreMonster/4.html&lt;/a&gt; &lt;a href=&quot;\nhttp://postimage.co.nr/2015/5/WeAreMonster/5.html&quot; rel=&quot;nofollow&quot; target=&quot;_NEW&quot;&gt;\nhttp://postimage.co.nr/2015/5/WeAreMonster/5.html&lt;/a&gt; &lt;a href=&quot;\nhttp://postimage.co.nr/2015/5/WeAreMonster/6.html&quot; rel=&quot;nofollow&quot; target=&quot;_NEW&quot;&gt;\nhttp://postimage.co.nr/2015/5/WeAreMonster/6.html&lt;/a&gt; &lt;a href=&quot;\nhttp://postimage.co.nr/2015/5/WeAreMonster/7.html&quot; rel=&quot;nofollow&quot; target=&quot;_NEW&quot;&gt;\nhttp://postimage.co.nr/2015/5/WeAreMonster/7.html&lt;/a&gt; &lt;a href=&quot;\nhttp://postimage.co.nr/2015/5/WeAreMonster/8.html&quot; rel=&quot;nofollow&quot; target=&quot;_NEW&quot;&gt;\nhttp://postimage.co.nr/2015/5/WeAreMonster/8.html&lt;/a&gt; &lt;a href=&quot;\nhttp://postimage.co.nr/2015/5/WeAreMonster/9.html&quot; rel=&quot;nofollow&quot; target=&quot;_NEW&quot;&gt;\nhttp://postimage.co.nr/2015/5/WeAreMonster/9.html&lt;/a&gt; &lt;a href=&quot;\nhttp://postimage.co.nr/2015/5/WeAreMonster/10.html&quot; rel=&quot;nofollow&quot; target=&quot;_NEW&quot;&gt;\nhttp://postimage.co.nr/2015/5/WeAreMonster/10.html&lt;/a&gt;\n\nFormat                                   : Matroska\nFormat version                           : Version 4 / Version 2\nFile size                                : 693 MiB\nDuration                                 : 1h 28mn\nOverall bit rate                         : 1 091 Kbps\nMovie name                               : We Are Monster 2014 English Movies HC HDRip XviD AAC New Source ~ rDX ~\n\nVideo\nID                                       : 1\nFormat                                   : MPEG-4 Visual\nFormat profile                           : Advanced Simple@L5\nFormat settings, BVOP                    : Yes\nFormat settings, QPel                    : No\nFormat settings, GMC                     : No warppoints\nFormat settings, Matrix                  : Default (H.263)\nCodec ID                                 : V_MS/VFW/FOURCC / XVID\nCodec ID/Hint                            : XviD\nDuration                                 : 1h 28mn\nBit rate                                 : 942 Kbps\nWidth                                    : 640 pixels\nHeight                                   : 344 pixels\nDisplay aspect ratio                     : 1.85:1\nFrame rate mode                          : Constant\nFrame rate                               : 24.000 fps\nColor space                              : YUV\nChroma subsampling                       : 4:2:0\nBit depth                                : 8 bits\nScan type                                : Progressive\nCompression mode                         : Lossy\nBits/(Pixel*Frame)                       : 0.178\nStream size                              : 598 MiB (86%)\nTitle                                    : ~ rDX ~\nWriting library                          : XviD 66\nDefault                                  : Yes\nForced                                   : No\n\nAudio\nID                                       : 2\nFormat                                   : MPEG Audio\nFormat version                           : Version 1\nFormat profile                           : Layer 3\nMode                                     : Joint stereo\nCodec ID                                 : A_MPEG/L3\nCodec ID/Hint                            : MP3\nDuration                                 : 1h 28mn\nBit rate mode                            : Constant\nBit rate                                 : 128 Kbps\nChannel(s)                               : 2 channels\nSampling rate                            : 48.0 KHz\nCompression mode                         : Lossy\nStream size                              : 81.3 MiB (12%)\nTitle                                    : ~ rDX ~\nWriting library                          : LAME3.99r\nEncoding settings                        : -m j -V 4 -q 3 -lowpass 17 -b 128\nDefault                                  : Yes\nForced                                   : No","torrent":{"xt":"urn:btih:2909e06ce0f6388a60294541a798aeb32a7ae08c","amp;dn":"We+Are+Monster+2014+Movies+HC+HDRip+XviD+AAC+New+%2BSample+%7E+%E2%98%BBrDX%E2%98%BB","amp;tr":["udp%3A%2F%2Ftracker.openbittorrent.com%3A80","udp%3A%2F%2Fopen.demonii.com%3A1337","udp%3A%2F%2Ftracker.coppersurfer.tk%3A6969","udp%3A%2F%2Fexodus.desync.com%3A6969"],"infoHash":"2909e06ce0f6388a60294541a798aeb32a7ae08c","infoHashBuffer":{"type":"Buffer","data":[41,9,224,108,224,246,56,138,96,41,69,65,167,152,174,179,42,122,224,140]},"announce":[],"urlList":[]}}